<svg width="69" height="69" viewBox="0 0 69 69" fill="none" xmlns="http://www.w3.org/2000/svg">
<path d="M69 0H0V69H69V0Z" fill="#FD4539"/>
<path d="M40.1234 46.2021H28.5728C28.2688 46.2021 27.9648 46.5061 27.9648 46.8101C27.9648 47.114 28.2688 47.418 28.5728 47.418H40.1234C40.4274 47.418 40.7314 47.114 40.7314 46.8101C40.7314 46.5061 40.4274 46.2021 40.1234 46.2021Z" fill="white"/>
<path d="M40.1234 43.4668H28.5728C28.2688 43.4668 27.9648 43.7708 27.9648 44.0747C27.9648 44.3787 28.2688 44.6827 28.5728 44.6827H40.1234C40.4274 44.6827 40.7314 44.3787 40.7314 44.0747C40.7314 43.7708 40.4274 43.4668 40.1234 43.4668Z" fill="white"/>
<path d="M51.9785 17.0218V16.4139C51.9785 14.8941 50.7626 13.6782 49.2428 13.6782H19.7582C18.2384 13.6782 17.0225 14.8941 17.0225 16.4139V17.0218C15.5027 17.3258 14.5908 18.2377 14.5908 19.7575V23.1011V30.7003C14.5908 31.9161 15.5027 32.828 16.7186 32.828H17.3265V48.0262C17.3265 49.5461 18.2384 51.0659 19.4543 51.9778V54.7135C19.4543 55.0174 19.7582 55.3214 20.0622 55.3214H25.2296C25.5336 55.3214 25.8375 55.0174 25.8375 54.7135V52.2817H43.7714V54.7135C43.7714 55.0174 44.0754 55.3214 44.3794 55.3214H49.5468C49.8507 55.3214 50.1547 55.0174 50.1547 54.7135V51.6738C51.3706 51.0659 52.2824 49.5461 52.2824 47.7223V32.524H52.8904C54.1062 32.524 55.0181 31.6121 55.0181 30.3963V23.1011V19.7575C54.4102 18.2377 53.4983 17.0218 51.9785 17.0218ZM53.1943 19.7575V21.2773C52.8904 21.2773 52.5864 20.9734 52.2824 20.9734H51.6745V18.2377C52.5864 18.2377 53.1943 19.1496 53.1943 19.7575ZM19.7582 14.8941H49.2428C50.1547 14.8941 50.7626 15.502 50.7626 16.4139V17.6298H18.2384V16.4139C18.2384 15.502 18.8463 14.8941 19.7582 14.8941ZM47.723 44.3787H50.7626V46.8104H47.723V44.3787ZM43.4675 44.3787H46.5071V46.8104H43.4675V44.3787ZM42.8595 43.4668C42.5556 43.4668 42.2516 43.7707 42.2516 44.0747V47.7223C42.2516 48.3302 41.6437 48.9381 41.0358 48.9381H27.9653C27.3573 48.9381 26.7494 48.3302 26.7494 47.7223V44.0747C26.7494 43.7707 26.4454 43.4668 26.1415 43.4668H18.2384V40.7311H50.7626V43.4668H42.8595ZM18.2384 44.3787H21.278V46.8104H18.2384V44.3787ZM22.4939 44.3787H25.5335V46.8104H22.4939V44.3787ZM42.5556 18.8456L34.6525 39.5152H24.9256L32.5247 18.5417H42.5556V18.8456ZM35.8684 39.5152L43.4675 18.5417H45.5952L37.9961 39.5152H35.8684ZM17.0225 18.2377V20.9734H16.4146C16.1106 20.9734 15.8067 21.2773 15.5027 21.2773V19.7575C15.5027 19.1496 16.1106 18.2377 17.0225 18.2377ZM15.5027 30.7003V23.1011C15.5027 22.4932 15.8067 22.1892 16.4146 22.1892H18.8463C19.4543 22.1892 19.7582 22.4932 19.7582 23.1011V30.7003C19.7582 31.3082 19.4543 31.6121 18.8463 31.6121H16.4146C16.1106 31.6121 15.5027 31.3082 15.5027 30.7003ZM18.8463 32.828C20.0622 32.828 20.9741 31.9161 20.9741 30.7003V23.1011C20.9741 21.8853 20.0622 20.9734 18.8463 20.9734H18.2384V18.8456H31.6128L23.7098 39.5152H18.2384V32.524H18.8463V32.828ZM24.3177 54.1055H20.3661V52.2817C20.6701 52.2817 20.9741 52.2817 21.278 52.2817H24.3177V54.1055ZM48.6349 54.1055H44.6833V52.2817H47.723C48.0269 52.2817 48.3309 52.2817 48.6349 52.2817V54.1055ZM47.419 51.0659H21.278C19.7582 51.0659 18.2384 49.85 18.2384 48.0262H25.8375C26.1415 48.9381 27.0534 49.85 27.9653 49.85H41.0358C42.2516 49.85 43.1635 49.2421 43.1635 48.0262H50.7626C50.4587 49.85 49.2428 51.0659 47.419 51.0659ZM50.7626 39.5152H39.212L46.8111 18.5417H50.7626V20.9734H50.1547C48.9388 20.9734 48.0269 21.8853 48.0269 23.1011V30.7003C48.0269 31.9161 48.9388 32.828 50.1547 32.828H50.7626V39.5152ZM53.1943 30.7003C53.1943 31.3082 52.8904 31.6121 52.2824 31.6121H49.8507C49.2428 31.6121 48.9388 31.3082 48.9388 30.7003V23.1011C48.9388 22.4932 49.2428 22.1892 49.8507 22.1892H52.2824C52.8904 22.1892 53.1943 22.4932 53.1943 23.1011V30.7003Z" fill="white"/>
</svg>
